<svg xmlns="http://www.w3.org/2000/svg"  viewBox="0 0 48 48" width="48px" height="48px" baseProfile="basic"><linearGradient id="-w1ouzzlAP5XG5OQ0BzKca" x1="24" x2="24" y1="551.099" y2="528.763" gradientTransform="matrix(1 0 0 -1 0 556)" gradientUnits="userSpaceOnUse"><stop offset="0" stop-color="#eba600"/><stop offset="1" stop-color="#c28200"/></linearGradient><path fill="url(#-w1ouzzlAP5XG5OQ0BzKca)" d="M24.414,10.414l-2.536-2.536C21.316,7.316,20.553,7,19.757,7H5C3.895,7,3,7.895,3,9v30	c0,1.105,0.895,2,2,2h38c1.105,0,2-0.895,2-2V13c0-1.105-0.895-2-2-2H25.828C25.298,11,24.789,10.789,24.414,10.414z"/><linearGradient id="-w1ouzzlAP5XG5OQ0BzKcb" x1="24" x2="24" y1="13.046" y2="26.137" gradientUnits="userSpaceOnUse"><stop offset="0" stop-color="#fff"/><stop offset=".24" stop-color="#f8f8f7"/><stop offset="1" stop-color="#e3e3e1"/></linearGradient><path fill="url(#-w1ouzzlAP5XG5OQ0BzKcb)" d="M40,33H8V17c0-1.105,0.895-2,2-2h28c1.105,0,2,0.895,2,2V33z"/><linearGradient id="-w1ouzzlAP5XG5OQ0BzKcc" x1="-1726.019" x2="-1726.019" y1="515.155" y2="525.105" gradientTransform="rotate(180 -851 278)" gradientUnits="userSpaceOnUse"><stop offset="0" stop-color="#ffd869"/><stop offset="1" stop-color="#fec52b"/></linearGradient><path fill="url(#-w1ouzzlAP5XG5OQ0BzKcc)" d="M24.8,28.4l2.4-1.8c0.519-0.389,1.151-0.6,1.8-0.6h16.858c0.605,0,1.071,0.533,0.991,1.132	l-1.617,12.132C45.1,40.258,44.252,41,43.25,41H4.694c-0.978,0-1.812-0.707-1.973-1.671l-1.527-9.164	C1.093,29.555,1.563,29,2.181,29H23C23.649,29,24.281,28.789,24.8,28.4z"/></svg>