<svg xmlns="http://www.w3.org/2000/svg" xmlns:xlink="http://www.w3.org/1999/xlink" viewBox="0,0,256,256" width="64px" height="64px" fill-rule="nonzero"><g fill="none" fill-rule="nonzero" stroke="none" stroke-width="1" stroke-linecap="butt" stroke-linejoin="miter" stroke-miterlimit="10" stroke-dasharray="" stroke-dashoffset="0" font-family="none" font-weight="none" font-size="none" text-anchor="none" style="mix-blend-mode: normal"><g transform="translate(-26.02063,-13.32) scale(4,4)"><path d="M53.45,5h-23.39c-0.66525,-0.001 -1.28746,0.32884 -1.66,0.88l-20.29,30c-0.41464,0.61343 -0.45644,1.40575 -0.10866,2.05942c0.34778,0.65366 1.02824,1.0617 1.76866,1.06058h11.29l-13.06,19.49c-0.26635,0.40105 -0.20913,0.93495 0.13616,1.27045c0.34529,0.33549 0.88062,0.37733 1.27384,0.09955l41,-29.05c0.34629,-0.25014 0.49545,-0.69264 0.37125,-1.10137c-0.1242,-0.40873 -0.49433,-0.69344 -0.92125,-0.70863h-11.64c-0.39885,0.00272 -0.76118,-0.23185 -0.92196,-0.59687c-0.16078,-0.36502 -0.08927,-0.79068 0.18196,-1.08313l17.44,-19c0.5147,-0.58566 0.64212,-1.41705 0.32646,-2.12998c-0.31567,-0.71293 -1.01687,-1.17743 -1.79646,-1.19002z" fill="#f9e3ae"></path><path d="M25.31,39h-4.25l-13.06,19.49c-0.26635,0.40105 -0.20913,0.93495 0.13616,1.27045c0.34529,0.33549 0.88062,0.37733 1.27384,0.09955l10.78,-7.64l6.81,-10.11c0.41215,-0.61761 0.44823,-1.41271 0.09372,-2.06511c-0.35452,-0.6524 -1.04128,-1.0547 -1.78372,-1.04489zM9.77,39h8c-0.74042,0.00112 -1.42088,-0.40692 -1.76866,-1.06058c-0.34778,-0.65366 -0.30598,-1.44598 0.10866,-2.05942l20.29,-30c0.37254,-0.55116 0.99475,-0.881 1.66,-0.88h-8c-0.66525,-0.001 -1.28746,0.32884 -1.66,0.88l-20.29,30c-0.41464,0.61343 -0.45644,1.40575 -0.10866,2.05942c0.34778,0.65366 1.02824,1.0617 1.76866,1.06058z" fill="#faefde"></path><path d="M56.19,5.79c-0.47877,-1.0862 -1.55297,-1.78796 -2.74,-1.79h-23.39c-0.99434,0.00182 -1.92317,0.4962 -2.48,1.32l-20.29,30c-0.62095,0.91867 -0.68454,2.10493 -0.16534,3.08471c0.5192,0.97978 1.5365,1.59327 2.64534,1.59529h9.42l-12,17.94c-0.41464,0.61343 -0.45644,1.40575 -0.10866,2.05942c0.34778,0.65366 1.02824,1.0617 1.76866,1.06058c0.41339,-0.00476 0.81516,-0.13752 1.15,-0.38l41,-29c0.75413,-0.48634 1.09201,-1.41544 0.82648,-2.2726c-0.26553,-0.85716 -1.06948,-1.43254 -1.96648,-1.4074h-11.64l17.43,-19c0.79531,-0.87084 1.0066,-2.12687 0.54,-3.21zM54.19,7.67l-1.19,1.33c0,-0.55228 -0.44772,-1 -1,-1c-0.55228,0 -1,0.44772 -1,1v2c-0.00215,0.03664 -0.00215,0.07336 0,0.11l-14.25,15.54c-0.53444,0.58417 -0.67395,1.42863 -0.35581,2.15365c0.31815,0.72503 1.03405,1.19412 1.82581,1.19635h11.64l-41,29l13,-19.49c0.17867,-0.29996 0.18796,-0.67139 0.02451,-0.97991c-0.16345,-0.30852 -0.47598,-0.50945 -0.82451,-0.53009h-11.29c-0.37021,0.00056 -0.71044,-0.20346 -0.88433,-0.53029c-0.17389,-0.32683 -0.15299,-0.72299 0.05433,-1.02971l17.06,-25.27c0.08363,0.48508 0.50782,0.83716 1,0.83c0.55228,0 1,-0.44772 1,-1v-2c-0.00607,-0.18137 -0.06138,-0.35767 -0.16,-0.51l1.39,-2.05c0.18627,-0.27558 0.49737,-0.4405 0.83,-0.44h23.39c0.39885,-0.00272 0.76118,0.23185 0.92196,0.59687c0.16078,0.36502 0.08927,0.79068 -0.18196,1.08313z" fill="#8d6c9f"></path><path d="M38.06,35.62c0.20732,0.00157 0.41,-0.06133 0.58,-0.18l2,-1.44c0.45011,-0.32033 0.55533,-0.94489 0.235,-1.395c-0.32033,-0.45011 -0.94489,-0.55533 -1.395,-0.235l-2,1.44c-0.35929,0.25076 -0.5135,0.70621 -0.38047,1.12367c0.13304,0.41746 0.52234,0.6997 0.96047,0.69633zM34.25,36.1l-9,6.34c-0.45011,0.32033 -0.55533,0.94489 -0.235,1.395c0.32033,0.45011 0.94489,0.55533 1.395,0.235l9,-6.34c0.45011,-0.32033 0.55533,-0.94489 0.235,-1.395c-0.32033,-0.45011 -0.94489,-0.55533 -1.395,-0.235zM32,12c0.55228,0 1,-0.44772 1,-1v-2c0,-0.55228 -0.44772,-1 -1,-1c-0.55228,0 -1,0.44772 -1,1v2c0,0.55228 0.44772,1 1,1zM37,8c-0.55228,0 -1,0.44772 -1,1v2c0,0.55228 0.44772,1 1,1c0.55228,0 1,-0.44772 1,-1v-2c0,-0.55228 -0.44772,-1 -1,-1zM42,8c-0.55228,0 -1,0.44772 -1,1v2c0,0.55228 0.44772,1 1,1c0.55228,0 1,-0.44772 1,-1v-2c0,-0.55228 -0.44772,-1 -1,-1zM47,8c-0.55228,0 -1,0.44772 -1,1v2c0,0.55228 0.44772,1 1,1c0.55228,0 1,-0.44772 1,-1v-2c0,-0.55228 -0.44772,-1 -1,-1z" fill="#8d6c9f"></path></g></g><g fill="none" fill-rule="nonzero" stroke="none" stroke-width="1" stroke-linecap="butt" stroke-linejoin="miter" stroke-miterlimit="10" stroke-dasharray="" stroke-dashoffset="0" font-family="none" font-weight="none" font-size="none" text-anchor="none" style="mix-blend-mode: normal"><g transform="translate(141.10447,122.94512) scale(4.57339,4.57339)" id="overlay"><path d="M19,16l-4,-4v15h-6v-15l-4,4l-3.994,-3.994l10.994,-10.994l11,10.988z" fill="#72caaf"></path><path d="M12.707,0.305l11,10.988c0.188,0.187 0.293,0.441 0.293,0.707c0,0.265 -0.105,0.52 -0.293,0.707l-4,4c-0.39,0.39 -1.024,0.39 -1.414,0l-2.293,-2.293v12.586c0,0.552 -0.448,1 -1,1h-6c-0.552,0 -1,-0.448 -1,-1v-12.586l-2.293,2.293c-0.39,0.39 -1.024,0.39 -1.414,0l-3.994,-3.994c-0.39,-0.39 -0.39,-1.024 0,-1.414l10.994,-10.994c0.195,-0.196 0.451,-0.293 0.707,-0.293c0.256,0 0.512,0.097 0.707,0.293zM5,14.586l3.293,-3.293c0.286,-0.286 0.715,-0.372 1.09,-0.217c0.373,0.154 0.617,0.52 0.617,0.924v14h4v-14c0,-0.404 0.244,-0.77 0.617,-0.924c0.374,-0.155 0.803,-0.069 1.09,0.217l3.293,3.293l2.585,-2.586l-9.585,-9.574l-9.581,9.58z" fill="#8d6c9f"></path></g></g></svg>