<svg xmlns="http://www.w3.org/2000/svg"  viewBox="0 0 48 48" width="48px" height="48px"><path fill="#90CAF9" d="M30 24L30 6 6 6 6 42 30 42 30 31z"/><path fill="#1976D2" d="M6 23.002H10V25.002H6zM12 23H16V25H12zM18 23H22V25H18z"/><g><path fill="#006064" d="M38 13c-2.209 0-4 1.791-4 4s1.791 4 4 4 4-1.791 4-4S40.209 13 38 13zM39.986 17.052C39.858 18.125 38.874 19 37.794 19c-.5 0-.959-.212-1.298-.595-.375-.426-.551-1.007-.48-1.592C36.141 15.762 37.036 15 38.148 15c.544 0 1.056.224 1.405.621C39.896 16.011 40.05 16.519 39.986 17.052zM29.766 21.813L32.484 24.75 29.881 26.45 26.25 23.922z"/><path fill="#006064" d="M38,20.357c-1.285,0-2.416-0.617-3.147-1.559c-0.195,0.11-0.405,0.228-0.49,0.273c-0.886,0.477-4.588,2.73-4.745,2.826c-0.148,0.091-0.244,0.247-0.258,0.42c-0.014,0.174,0.057,0.344,0.19,0.457l2.277,1.934c0.099,0.082,0.224,0.127,0.351,0.127c0.027,0,0.053,0,0.078-0.006c0.153-0.021,0.291-0.109,0.375-0.238C34.312,22.029,36.112,21.747,38,21c0.184-0.073,0.509-0.639,0.688-0.712C38.463,20.327,38.235,20.357,38,20.357z"/></g><g><path fill="#0097A7" d="M42,32c0-2.209-1.791-4-4-4s-4,1.791-4,4s1.791,4,4,4S42,34.209,42,32z M39.554,33.379C39.204,33.775,38.692,34,38.148,34c-1.112,0-2.008-0.762-2.133-1.814c-0.07-0.584,0.105-1.166,0.48-1.592C36.835,30.211,37.294,30,37.794,30c1.08,0,2.064,0.875,2.192,1.947C40.05,32.48,39.896,32.988,39.554,33.379z"/><path fill="#0097A7" d="M32.141,23.427c-0.04-0.071-0.094-0.133-0.16-0.18l-10.362-7.245c-0.052-0.039-1.564-0.999-3.422-0.999c-1.015,0-1.934,0.163-2.735,0.819L15,16.342l14.578,10.57c0.196,0.122,3.898,2.376,4.784,2.854c0.036,0.02,0.187,0.105,0.381,0.217c0.725-1.021,1.91-1.691,3.257-1.691c0.027,0-0.079-0.59,0-0.291C35.938,27.185,33.894,26.613,32.141,23.427z M29.675,25C29.304,25,29,24.697,29,24.324c0-0.372,0.304-0.674,0.675-0.674c0.373,0,0.676,0.302,0.676,0.674C30.351,24.697,30.048,25,29.675,25z"/></g></svg>