<svg xmlns="http://www.w3.org/2000/svg" xmlns:xlink="http://www.w3.org/1999/xlink" viewBox="0,0,256,256" width="48px" height="48px" fill-rule="nonzero"><g fill="none" fill-rule="nonzero" stroke="none" stroke-width="1" stroke-linecap="butt" stroke-linejoin="miter" stroke-miterlimit="10" stroke-dasharray="" stroke-dashoffset="0" font-family="none" font-weight="none" font-size="none" text-anchor="none" style="mix-blend-mode: normal"><g transform="scale(5.33333,5.33333)"><path d="M36,4h-10c0,1.105 -0.895,2 -2,2c-1.105,0 -2,-0.895 -2,-2h-10c-2.211,0 -4,1.789 -4,4v32c0,2.211 1.789,4 4,4h24c2.211,0 4,-1.789 4,-4v-32c0,-2.211 -1.789,-4 -4,-4" fill="#455a64"></path><path d="M36,41h-24c-0.551,0 -1,-0.449 -1,-1v-32c0,-0.551 0.449,-1 1,-1h24c0.551,0 1,0.449 1,1v32c0,0.551 -0.449,1 -1,1" fill="#ffffff"></path><path d="M26,4c0,1.105 -0.895,2 -2,2c-1.105,0 -2,-0.895 -2,-2h-7v4c0,1.105 0.895,2 2,2h14c1.105,0 2,-0.895 2,-2v-4z" fill="#90a4ae"></path><path d="M24,0c-2.207,0 -4,1.793 -4,4c0,2.207 1.793,4 4,4c2.207,0 4,-1.793 4,-4c0,-2.207 -1.793,-4 -4,-4M24,6c-1.105,0 -2,-0.895 -2,-2c0,-1.105 0.895,-2 2,-2c1.105,0 2,0.895 2,2c0,1.105 -0.895,2 -2,2" fill="#90a4ae"></path><g fill="#03a9f4"><path d="M15,15h16v3h-16zM15,22h16v2h-16zM15,26h12v2h-12zM15,30h16v2h-16zM15,34h12v2h-12z"></path></g></g></g><g fill="#7cb342" fill-rule="nonzero" stroke="none" stroke-width="1" stroke-linecap="butt" stroke-linejoin="miter" stroke-miterlimit="10" stroke-dasharray="" stroke-dashoffset="0" font-family="none" font-weight="none" font-size="none" text-anchor="none" style="mix-blend-mode: normal"><g transform="translate(3.66667,61.66667) scale(5.33333,5.33333)" id="overlay"><path d="M20,7h-7v-7h-6v7h-7v6h7v7h6v-7h7z"></path></g></g></svg>