<svg xmlns="http://www.w3.org/2000/svg"  viewBox="0 0 64 64" width="64px" height="64px"><path fill="#f9e3ae" d="M53.45,5H30.06a2,2,0,0,0-1.66.88l-20.29,30A2,2,0,0,0,9.77,39H21.06L8,58.49a1,1,0,0,0,1.41,1.37l41-29.05A1,1,0,0,0,49.86,29H38.22a1,1,0,0,1-.74-1.68l17.44-19A2,2,0,0,0,53.45,5Z"/><path fill="#faefde" d="M25.31 39H21.06L8 58.49a1 1 0 0 0 1.41 1.37l10.78-7.64L27 42.11A2 2 0 0 0 25.31 39zM9.77 39h8a2 2 0 0 1-1.66-3.12l20.29-30A2 2 0 0 1 38.06 5h-8a2 2 0 0 0-1.66.88l-20.29 30A2 2 0 0 0 9.77 39z"/><path fill="#8d6c9f" d="M56.19,5.79A3,3,0,0,0,53.45,4H30.06a3,3,0,0,0-2.48,1.32l-20.29,30A3,3,0,0,0,9.77,40h9.42l-12,17.94a2,2,0,0,0,1.66,3.12A2,2,0,0,0,10,60.68l41-29A2,2,0,0,0,49.86,28H38.22L55.65,9A3,3,0,0,0,56.19,5.79Zm-2,1.88L53,9a1,1,0,0,0-2,0v2a.94.94,0,0,0,0,.11L36.75,26.65A2,2,0,0,0,38.22,30H49.86l-41,29,13-19.49A1,1,0,0,0,21.06,38H9.77a1,1,0,0,1-.83-1.56L26,11.17A1,1,0,0,0,27,12a1,1,0,0,0,1-1V9a1,1,0,0,0-.16-.51l1.39-2.05A1,1,0,0,1,30.06,6H53.45a1,1,0,0,1,.74,1.68Z"/><path fill="#8d6c9f" d="M38.06 35.62a1 1 0 0 0 .58-.18l2-1.44a1 1 0 0 0-1.16-1.63l-2 1.44a1 1 0 0 0 .58 1.82zM34.25 36.1l-9 6.34a1 1 0 0 0 1.16 1.63l9-6.34a1 1 0 0 0-1.16-1.63zM32 12a1 1 0 0 0 1-1V9a1 1 0 0 0-2 0v2A1 1 0 0 0 32 12zM37 8a1 1 0 0 0-1 1v2a1 1 0 0 0 2 0V9A1 1 0 0 0 37 8zM42 8a1 1 0 0 0-1 1v2a1 1 0 0 0 2 0V9A1 1 0 0 0 42 8zM47 8a1 1 0 0 0-1 1v2a1 1 0 0 0 2 0V9A1 1 0 0 0 47 8z"/></svg>