<?xml version="1.0" encoding="UTF-8" standalone="no"?>
<svg
   viewBox="0 0 48 48"
   width="48px"
   height="48px"
   version="1.1"
   id="svg7"
   sodipodi:docname="move-clip-to-collection.svg"
   xml:space="preserve"
   inkscape:version="1.4.2 (f4327f4, 2025-05-13)"
   xmlns:inkscape="http://www.inkscape.org/namespaces/inkscape"
   xmlns:sodipodi="http://sodipodi.sourceforge.net/DTD/sodipodi-0.dtd"
   xmlns="http://www.w3.org/2000/svg"
   xmlns:svg="http://www.w3.org/2000/svg"><defs
     id="defs7" /><sodipodi:namedview
     id="namedview7"
     pagecolor="#ffffff"
     bordercolor="#000000"
     borderopacity="0.25"
     inkscape:showpageshadow="2"
     inkscape:pageopacity="0.0"
     inkscape:pagecheckerboard="0"
     inkscape:deskcolor="#d1d1d1"
     inkscape:zoom="18.083333"
     inkscape:cx="24.02765"
     inkscape:cy="24"
     inkscape:window-width="1920"
     inkscape:window-height="1112"
     inkscape:window-x="-8"
     inkscape:window-y="-8"
     inkscape:window-maximized="1"
     inkscape:current-layer="svg7" /><linearGradient
     id="-w1ouzzlAP5XG5OQ0BzKca"
     x1="24"
     x2="24"
     y1="551.099"
     y2="528.763"
     gradientTransform="matrix(1 0 0 -1 0 556)"
     gradientUnits="userSpaceOnUse"><stop
       offset="0"
       stop-color="#eba600"
       id="stop1" /><stop
       offset="1"
       stop-color="#c28200"
       id="stop2" /></linearGradient><path
     fill="url(#-w1ouzzlAP5XG5OQ0BzKca)"
     d="M24.414,10.414l-2.536-2.536C21.316,7.316,20.553,7,19.757,7H5C3.895,7,3,7.895,3,9v30 c0,1.105,0.895,2,2,2h38c1.105,0,2-0.895,2-2V13c0-1.105-0.895-2-2-2H25.828C25.298,11,24.789,10.789,24.414,10.414z"
     id="path2" /><linearGradient
     id="-w1ouzzlAP5XG5OQ0BzKcb"
     x1="24"
     x2="24"
     y1="13.046"
     y2="26.137"
     gradientUnits="userSpaceOnUse"><stop
       offset="0"
       stop-color="#fff"
       id="stop3" /><stop
       offset=".24"
       stop-color="#f8f8f7"
       id="stop4" /><stop
       offset="1"
       stop-color="#e3e3e1"
       id="stop5" /></linearGradient><path
     fill="url(#-w1ouzzlAP5XG5OQ0BzKcb)"
     d="M40,33H8V17c0-1.105,0.895-2,2-2h28c1.105,0,2,0.895,2,2V33z"
     id="path5" /><linearGradient
     id="-w1ouzzlAP5XG5OQ0BzKcc"
     x1="-1726.019"
     x2="-1726.019"
     y1="515.155"
     y2="525.105"
     gradientTransform="rotate(180 -851 278)"
     gradientUnits="userSpaceOnUse"><stop
       offset="0"
       stop-color="#ffd869"
       id="stop6" /><stop
       offset="1"
       stop-color="#fec52b"
       id="stop7" /></linearGradient><path
     fill="url(#-w1ouzzlAP5XG5OQ0BzKcc)"
     d="M24.8,28.4l2.4-1.8c0.519-0.389,1.151-0.6,1.8-0.6h16.858c0.605,0,1.071,0.533,0.991,1.132 l-1.617,12.132C45.1,40.258,44.252,41,43.25,41H4.694c-0.978,0-1.812-0.707-1.973-1.671l-1.527-9.164 C1.093,29.555,1.563,29,2.181,29H23C23.649,29,24.281,28.789,24.8,28.4z"
     id="path7" /><g
     id="g7"
     transform="translate(10.023041,3.921659)"><path
       fill="#bae0bd"
       d="m 27.5,22.5 h -25 v -5 h 25 V 10.241 L 37.292,20 27.5,29.759 Z"
       id="path1" /><path
       fill="#5e9c76"
       d="M 28,11.445 36.583,20 28,28.555 V 23 22 H 27 3 v -4 h 24 1 V 17 11.445 M 27,9.037 V 17 H 2 v 6 h 25 v 7.963 L 38,20 Z"
       id="path2-0" /></g></svg>
