<?xml version="1.0" encoding="utf-8"?>
<svg xmlns="http://www.w3.org/2000/svg" viewBox="0 0 50 50" width="50px" height="50px">
  <path d="M 19.014 9.563 C 14.049 9.563 10.01 13.711 10.01 18.81 C 10.01 23.91 14.049 28.057 19.014 28.057 L 24.268 28.057 L 24.268 43.469 L 25.768 43.469 L 25.768 11.104 L 31.02 11.104 L 31.02 43.469 L 32.521 43.469 L 32.521 11.104 L 35.523 11.104 L 35.523 9.563 L 19.014 9.563 Z" style=""/>
  <path fill="#f78f8f" d="M 25.097 0.624 C 11.616 0.624 0.702 11.617 0.702 25.199 C 0.702 38.78 11.616 49.775 25.097 49.775 C 38.58 49.775 49.494 38.78 49.494 25.199 C 49.494 11.617 38.58 0.624 25.097 0.624 Z M 7.121 25.199 C 7.121 15.175 15.147 7.09 25.097 7.09 C 28.885 7.09 32.416 8.319 35.306 10.325 L 10.332 35.481 C 8.341 32.572 7.121 29.015 7.121 25.199 Z M 25.097 43.307 C 21.309 43.307 17.779 42.078 14.89 40.074 L 39.864 14.916 C 41.854 17.826 43.073 21.383 43.073 25.199 C 43.073 35.223 35.049 43.307 25.097 43.307 Z" style="stroke-width: 1;"/>
  <path fill="#c74343" d="M 25.097 50.097 C 11.487 50.097 0.38 38.909 0.38 25.199 C 0.38 11.488 11.487 0.3 25.097 0.3 C 38.708 0.3 49.815 11.488 49.815 25.199 C 49.815 38.909 38.708 50.097 25.097 50.097 Z M 25.097 0.946 C 11.807 0.946 1.022 11.812 1.022 25.199 C 1.022 38.586 11.807 49.451 25.097 49.451 C 38.387 49.451 49.174 38.586 49.174 25.199 C 49.174 11.812 38.387 0.946 25.097 0.946 Z M 25.097 43.631 C 21.374 43.631 17.779 42.466 14.697 40.332 L 14.376 40.138 L 39.929 14.398 L 40.121 14.722 C 42.24 17.826 43.395 21.448 43.395 25.199 C 43.395 35.352 35.177 43.631 25.097 43.631 Z M 15.339 40.008 C 18.228 41.949 21.566 42.983 25.097 42.983 C 34.857 42.983 42.753 35.029 42.753 25.199 C 42.753 21.706 41.726 18.343 39.8 15.369 L 15.339 40.008 Z M 10.267 35.999 L 10.075 35.675 C 7.956 32.572 6.8 28.95 6.8 25.199 C 6.8 15.045 15.018 6.768 25.097 6.768 C 28.822 6.768 32.416 7.931 35.499 10.065 L 35.819 10.259 L 10.267 35.999 Z M 25.097 7.414 C 15.339 7.414 7.442 15.369 7.442 25.199 C 7.442 28.691 8.469 32.054 10.395 35.029 L 34.857 10.389 C 31.903 8.449 28.565 7.414 25.097 7.414 Z" style="stroke-width: 1;"/>
</svg>